<?xml version="1.0" encoding="utf-8"?>
<!-- Generator: Adobe Illustrator 26.3.1, SVG Export Plug-In . SVG Version: 6.00 Build 0)  -->
<svg version="1.1" id="Layer_1" xmlns="http://www.w3.org/2000/svg" xmlns:xlink="http://www.w3.org/1999/xlink" x="0px" y="0px"
	 viewBox="0 0 227 106" style="enable-background:new 0 0 227 106;" xml:space="preserve">
<style type="text/css">
	.st0{fill:#FFFFFF;stroke:#000000;stroke-width:2;stroke-miterlimit:10;}
</style>
<g>
	<g>
		<path d="M17.06,24.65h4.25l10.64,39.17h-3.91l-8.86-34.96l-8.86,34.96H6.42L17.06,24.65z M11.72,50.7H27.1v3.61H11.72V50.7z"/>
		<path d="M41.92,63.06c-1.38-0.77-2.43-1.93-3.15-3.47c-0.72-1.54-1.07-3.42-1.07-5.63V45.8c0-2.23,0.35-4.11,1.06-5.66
			c0.71-1.54,1.76-2.72,3.15-3.52c1.39-0.8,3.09-1.2,5.09-1.2c1.59,0,2.98,0.27,4.15,0.79s2.13,1.32,2.87,2.37
			c0.74,1.05,1.22,2.3,1.43,3.76l-3.42,1.13c-0.31-1.44-0.88-2.54-1.71-3.31s-1.91-1.16-3.25-1.16c-1.9,0-3.36,0.58-4.36,1.74
			s-1.5,2.84-1.5,5.05v8.16c0,2.15,0.5,3.8,1.5,4.94c1,1.14,2.45,1.71,4.36,1.71c1.37,0,2.48-0.36,3.34-1.09
			c0.86-0.73,1.46-1.77,1.81-3.14l3.27,1.13c-0.26,1.44-0.75,2.66-1.46,3.68c-0.72,1.01-1.67,1.77-2.87,2.28s-2.58,0.75-4.16,0.75
			C45,64.22,43.3,63.84,41.92,63.06z"/>
		<path d="M60.43,35.86h11.18v3.48H60.43V35.86z M64.47,62.08c-0.95-1.25-1.43-3.09-1.43-5.54V27.72h3.52V56.6
			c0,1.2,0.24,2.13,0.73,2.77s1.21,0.97,2.17,0.97h2.15v3.61h-2.64C66.92,63.95,65.42,63.33,64.47,62.08z"/>
		<path d="M79.91,25.43h3.54v3.85h-3.54V25.43z M79.91,35.86h3.54v27.96h-3.54V35.86z"/>
		<path d="M106.97,35.86h3.69l-8.54,27.96h-3.03l-8.54-27.96h3.66l6.4,22.65L106.97,35.86z"/>
		<path d="M118.37,62.12c-1.37-1.4-2.05-3.45-2.05-6.14c0-2.89,0.7-5.09,2.09-6.59c1.39-1.5,3.42-2.25,6.09-2.25h6.49l0.34,3.21
			h-6.81c-1.58,0-2.78,0.48-3.61,1.43c-0.83,0.95-1.24,2.35-1.24,4.2c0,1.63,0.45,2.87,1.35,3.72c0.9,0.84,2.22,1.27,3.94,1.27
			c1.87,0,3.31-0.35,4.31-1.05c1-0.7,1.5-1.73,1.5-3.1l0.51,2.99c-0.26,0.97-0.7,1.78-1.32,2.44c-0.62,0.66-1.4,1.15-2.36,1.48
			c-0.95,0.33-2.05,0.5-3.31,0.5C121.72,64.22,119.74,63.52,118.37,62.12z M130.77,44.69c0-1.87-0.46-3.32-1.39-4.35
			c-0.93-1.03-2.25-1.55-3.96-1.55c-1.22,0-2.29,0.31-3.21,0.94c-0.92,0.63-1.6,1.52-2.04,2.67l-2.98-1
			c0.49-1.89,1.45-3.36,2.87-4.42s3.2-1.59,5.33-1.59c1.84,0,3.41,0.36,4.72,1.09c1.31,0.73,2.31,1.77,2.99,3.14
			c0.68,1.37,1.03,3.02,1.03,4.96v19.23h-3.37V44.69z"/>
		<path d="M140.86,35.86h11.18v3.48h-11.18V35.86z M144.9,62.08c-0.95-1.25-1.43-3.09-1.43-5.54V27.72h3.52V56.6
			c0,1.2,0.24,2.13,0.73,2.77s1.21,0.97,2.17,0.97h2.15v3.61h-2.64C147.35,63.95,145.85,63.33,144.9,62.08z"/>
		<path d="M163.46,62.93c-1.41-0.86-2.48-2.11-3.22-3.73c-0.74-1.62-1.11-3.59-1.11-5.89v-6.44c0-2.42,0.36-4.49,1.07-6.2
			c0.72-1.71,1.75-3.01,3.11-3.91c1.36-0.9,3-1.35,4.92-1.35c1.86,0,3.44,0.43,4.76,1.28s2.32,2.1,3.02,3.74
			c0.69,1.64,1.04,3.62,1.04,5.94v5.12h-15.65v-3.58h12.28v-1.78c-0.02-2.24-0.5-4-1.44-5.25c-0.94-1.26-2.28-1.89-4-1.89
			c-1.82,0-3.23,0.66-4.22,1.98c-0.99,1.32-1.49,3.18-1.49,5.59v6.84c0,2.28,0.53,4.05,1.59,5.31c1.06,1.26,2.54,1.89,4.44,1.89
			c1.25,0,2.3-0.35,3.15-1.04c0.85-0.69,1.43-1.65,1.76-2.87l3.3,1.13c-0.46,2.07-1.4,3.65-2.83,4.74c-1.43,1.1-3.22,1.64-5.37,1.64
			C166.56,64.22,164.87,63.79,163.46,62.93z"/>
		<path d="M203.37,62.92c-1.51-0.87-2.65-2.17-3.41-3.91c-0.76-1.73-1.14-3.91-1.14-6.53V24.65h3.52v28.01
			c0,2.59,0.56,4.52,1.68,5.8c1.12,1.28,2.81,1.93,5.05,1.93c2.26,0,3.96-0.64,5.09-1.93c1.13-1.28,1.7-3.22,1.7-5.8V24.65h3.52
			v27.83c0,2.62-0.38,4.8-1.15,6.53c-0.77,1.73-1.91,3.03-3.44,3.91c-1.53,0.87-3.43,1.31-5.71,1.31
			C206.79,64.22,204.88,63.79,203.37,62.92z"/>
		<path d="M25.03,73.55h1.33l3.77,11.19l-0.25,0.25V73.55h1.42v14.09h-1.34l-3.75-11.03l0.25-0.25v11.28h-1.42V73.55z"/>
		<path d="M34.99,87.42c-0.43-0.25-0.76-0.62-0.98-1.11c-0.22-0.49-0.33-1.1-0.33-1.83V73.55h1.47v11.01c0,0.54,0.12,0.96,0.36,1.24
			s0.6,0.42,1.07,0.42c0.48,0,0.84-0.14,1.09-0.42s0.36-0.69,0.36-1.24V73.55h1.47v10.93c0,0.73-0.11,1.34-0.33,1.83
			c-0.22,0.49-0.55,0.86-0.98,1.11c-0.43,0.25-0.97,0.37-1.61,0.37C35.96,87.8,35.43,87.67,34.99,87.42z"/>
		<path d="M41.02,73.55h6.21v1.52h-6.21V73.55z M43.39,74.71h1.48v12.95h-1.48V74.71z"/>
		<path d="M48.83,73.54h1.47v14.11h-1.47V73.54z M49.61,80.17h2.36c0.34,0,0.63-0.07,0.87-0.21c0.24-0.14,0.42-0.34,0.55-0.61
			s0.19-0.59,0.19-0.96v-1.45c0-0.39-0.06-0.72-0.19-1.01c-0.13-0.28-0.31-0.5-0.55-0.64c-0.24-0.15-0.53-0.22-0.87-0.22h-2.36
			v-1.52h2.24c0.67,0,1.25,0.12,1.73,0.37c0.48,0.25,0.85,0.61,1.1,1.1c0.25,0.48,0.38,1.06,0.38,1.73v1.65
			c0,0.69-0.12,1.28-0.37,1.78s-0.62,0.87-1.1,1.13c-0.48,0.26-1.06,0.39-1.74,0.39h-2.24V80.17z M52.03,81.25l1.35-0.45l2.04,6.85
			h-1.65L52.03,81.25z"/>
		<path d="M59.23,87.65h-1.48v-14.1h1.48V87.65z"/>
		<path d="M60.91,73.55h6.21v1.52h-6.21V73.55z M63.27,74.71h1.48v12.95h-1.48V74.71z"/>
		<path d="M70.27,87.65h-1.48v-14.1h1.48V87.65z"/>
		<path d="M74.29,87.38c-0.47-0.28-0.84-0.68-1.09-1.21c-0.25-0.53-0.37-1.17-0.37-1.92v-7.29c0-0.75,0.12-1.39,0.37-1.92
			c0.25-0.53,0.61-0.94,1.09-1.21s1.05-0.41,1.71-0.41s1.24,0.14,1.71,0.41s0.84,0.68,1.09,1.21c0.25,0.53,0.37,1.18,0.37,1.92v7.29
			c0,0.75-0.12,1.39-0.37,1.92c-0.25,0.53-0.61,0.93-1.09,1.21S76.67,87.8,76,87.8S74.76,87.66,74.29,87.38z M76.92,85.99
			c0.25-0.15,0.45-0.37,0.58-0.65c0.13-0.28,0.2-0.63,0.2-1.03v-7.43c0-0.4-0.07-0.74-0.2-1.03c-0.13-0.28-0.33-0.5-0.58-0.65
			c-0.25-0.15-0.56-0.22-0.92-0.22s-0.66,0.07-0.92,0.22c-0.25,0.15-0.45,0.37-0.58,0.65c-0.13,0.28-0.2,0.63-0.2,1.03v7.43
			c0,0.4,0.07,0.74,0.2,1.03c0.13,0.28,0.33,0.5,0.58,0.65c0.25,0.15,0.56,0.22,0.92,0.22S76.66,86.14,76.92,85.99z"/>
		<path d="M81.65,73.55h1.33l3.77,11.19l-0.25,0.25V73.55h1.42v14.09h-1.34l-3.75-11.03l0.25-0.25v11.28h-1.42V73.55z"/>
		<path d="M90.25,85.89h1.6v1.77h-1.6V85.89z"/>
		<path d="M98.51,73.55h1.48v14.1h-1.48V73.55z M99.62,79.95h3.92v1.52h-3.92V79.95z M102.93,73.55h1.47v14.1h-1.47V73.55z"/>
		<path d="M106.87,73.55h1.47v14.1h-1.47V73.55z M107.74,73.55h4.61v1.52h-4.61V73.55z M107.74,79.88h4.17v1.53h-4.17V79.88z
			 M107.74,86.13h4.61v1.52h-4.61V86.13z"/>
		<path d="M116.73,73.55h1.53l2.95,14.1h-1.6l-2.12-11.88l-2.12,11.88h-1.6L116.73,73.55z M115.55,82.88h4.07v1.52h-4.07V82.88z"/>
		<path d="M123.08,73.55h1.47v14.1h-1.47V73.55z M123.97,86.13h4.41v1.52h-4.41V86.13z"/>
		<path d="M129.55,73.55h6.21v1.52h-6.21V73.55z M131.91,74.71h1.48v12.95h-1.48V74.71z"/>
		<path d="M137.35,73.55h1.48v14.1h-1.48V73.55z M138.47,79.95h3.92v1.52h-3.92V79.95z M141.77,73.55h1.47v14.1h-1.47V73.55z"/>
		<path d="M145.56,85.89h1.6v1.77h-1.6V85.89z"/>
		<path d="M153.82,73.55h1.47v14.1h-1.47V73.55z M154.7,73.55h4.61v1.52h-4.61V73.55z M154.7,80.01h4.17v1.53h-4.17V80.01z"/>
		<path d="M162.73,87.65h-1.48v-14.1h1.48V87.65z"/>
		<path d="M164.41,73.55h6.21v1.52h-6.21V73.55z M166.77,74.71h1.48v12.95h-1.48V74.71z"/>
		<path d="M172.21,73.55h1.33l3.77,11.19l-0.25,0.25V73.55h1.42v14.09h-1.34l-3.75-11.03l0.25-0.25v11.28h-1.42V73.55z"/>
		<path d="M180.96,73.55h1.47v14.1h-1.47V73.55z M181.83,73.55h4.61v1.52h-4.61V73.55z M181.83,79.88h4.17v1.53h-4.17V79.88z
			 M181.83,86.13h4.61v1.52h-4.61V86.13z"/>
		<path d="M189.79,87.42c-0.46-0.25-0.81-0.62-1.04-1.11c-0.23-0.49-0.35-1.1-0.35-1.82v-0.7l1.46-0.01v0.67
			c0,0.59,0.14,1.04,0.42,1.35c0.28,0.3,0.69,0.46,1.23,0.46c0.53,0,0.93-0.15,1.2-0.45c0.27-0.3,0.4-0.75,0.4-1.35v-1.03
			c0-0.4-0.08-0.74-0.25-1.02c-0.17-0.28-0.38-0.51-0.64-0.7s-0.6-0.39-1.02-0.61c-0.02-0.01-0.03-0.01-0.04-0.02
			s-0.02-0.01-0.04-0.02L191.02,81c-0.56-0.3-1.02-0.58-1.37-0.83c-0.35-0.26-0.64-0.61-0.88-1.06c-0.24-0.45-0.36-1.01-0.36-1.68
			v-0.76c0-0.71,0.12-1.31,0.35-1.79s0.58-0.85,1.04-1.1c0.46-0.25,1.03-0.37,1.71-0.37c0.66,0,1.21,0.12,1.65,0.37
			c0.45,0.25,0.78,0.62,1.01,1.11c0.23,0.49,0.34,1.1,0.34,1.81v0.74h-1.45v-0.7c-0.01-0.59-0.14-1.03-0.4-1.34
			s-0.64-0.46-1.16-0.46c-0.54,0-0.95,0.14-1.22,0.43c-0.28,0.28-0.41,0.71-0.41,1.27v0.79c0,0.4,0.09,0.74,0.26,1.01
			s0.39,0.49,0.64,0.67c0.25,0.17,0.61,0.38,1.06,0.6c0.05,0.03,0.09,0.05,0.13,0.07c0.04,0.02,0.08,0.04,0.12,0.06
			c0.03,0.01,0.06,0.03,0.08,0.04c0.03,0.01,0.05,0.03,0.07,0.04c0.49,0.26,0.9,0.52,1.22,0.77c0.32,0.26,0.59,0.6,0.8,1.04
			c0.21,0.44,0.32,0.99,0.32,1.66v1.1c0,0.72-0.12,1.33-0.35,1.82c-0.23,0.49-0.58,0.86-1.03,1.11c-0.45,0.25-1.02,0.37-1.69,0.37
			C190.83,87.8,190.25,87.67,189.79,87.42z"/>
		<path d="M198.27,87.42c-0.46-0.25-0.81-0.62-1.04-1.11c-0.23-0.49-0.35-1.1-0.35-1.82v-0.7l1.46-0.01v0.67
			c0,0.59,0.14,1.04,0.42,1.35c0.28,0.3,0.69,0.46,1.23,0.46c0.53,0,0.93-0.15,1.2-0.45c0.27-0.3,0.4-0.75,0.4-1.35v-1.03
			c0-0.4-0.08-0.74-0.25-1.02c-0.17-0.28-0.38-0.51-0.64-0.7s-0.6-0.39-1.02-0.61c-0.02-0.01-0.03-0.01-0.04-0.02
			s-0.02-0.01-0.04-0.02L199.5,81c-0.56-0.3-1.02-0.58-1.37-0.83c-0.35-0.26-0.64-0.61-0.88-1.06c-0.24-0.45-0.36-1.01-0.36-1.68
			v-0.76c0-0.71,0.12-1.31,0.35-1.79s0.58-0.85,1.04-1.1c0.46-0.25,1.03-0.37,1.71-0.37c0.66,0,1.21,0.12,1.65,0.37
			c0.45,0.25,0.78,0.62,1.01,1.11c0.23,0.49,0.34,1.1,0.34,1.81v0.74h-1.45v-0.7c-0.01-0.59-0.14-1.03-0.4-1.34
			s-0.64-0.46-1.16-0.46c-0.54,0-0.95,0.14-1.22,0.43c-0.28,0.28-0.41,0.71-0.41,1.27v0.79c0,0.4,0.09,0.74,0.26,1.01
			s0.39,0.49,0.64,0.67c0.25,0.17,0.61,0.38,1.06,0.6c0.05,0.03,0.09,0.05,0.13,0.07c0.04,0.02,0.08,0.04,0.12,0.06
			c0.03,0.01,0.06,0.03,0.08,0.04c0.03,0.01,0.05,0.03,0.07,0.04c0.49,0.26,0.9,0.52,1.22,0.77c0.32,0.26,0.59,0.6,0.8,1.04
			c0.21,0.44,0.32,0.99,0.32,1.66v1.1c0,0.72-0.12,1.33-0.35,1.82c-0.23,0.49-0.58,0.86-1.03,1.11c-0.45,0.25-1.02,0.37-1.69,0.37
			C199.31,87.8,198.73,87.67,198.27,87.42z"/>
	</g>
</g>
<line class="st0" x1="6" y1="7" x2="219" y2="7"/>
<line class="st0" x1="6" y1="101" x2="219" y2="101"/>
</svg>
